<?xml version="1.0" encoding="UTF-8" standalone="no"?>
<!-- Uploaded to: SVG Repo, www.svgrepo.com, Generator: SVG Repo Mixer Tools -->

<svg
   fill="#000000"
   width="800px"
   height="800px"
   viewBox="0 0 1024 1024"
   version="1.1"
   id="svg2167"
   sodipodi:docname="bin.svg"
   inkscape:version="1.2.2 (732a01da63, 2022-12-09)"
   xmlns:inkscape="http://www.inkscape.org/namespaces/inkscape"
   xmlns:sodipodi="http://sodipodi.sourceforge.net/DTD/sodipodi-0.dtd"
   xmlns="http://www.w3.org/2000/svg"
   xmlns:svg="http://www.w3.org/2000/svg">
  <defs
     id="defs2171" />
  <sodipodi:namedview
     id="namedview2169"
     pagecolor="#505050"
     bordercolor="#ffffff"
     borderopacity="1"
     inkscape:showpageshadow="0"
     inkscape:pageopacity="0"
     inkscape:pagecheckerboard="1"
     inkscape:deskcolor="#505050"
     showgrid="false"
     inkscape:zoom="0.71064232"
     inkscape:cx="331.39034"
     inkscape:cy="363.75543"
     inkscape:window-width="1920"
     inkscape:window-height="991"
     inkscape:window-x="2391"
     inkscape:window-y="-9"
     inkscape:window-maximized="1"
     inkscape:current-layer="svg2167" />
  <path
     d="M831.24 280.772c5.657 0 10.24-4.583 10.24-10.24v-83.528c0-5.657-4.583-10.24-10.24-10.24H194.558a10.238 10.238 0 00-10.24 10.24v83.528c0 5.657 4.583 10.24 10.24 10.24H831.24zm0 40.96H194.558c-28.278 0-51.2-22.922-51.2-51.2v-83.528c0-28.278 22.922-51.2 51.2-51.2H831.24c28.278 0 51.2 22.922 51.2 51.2v83.528c0 28.278-22.922 51.2-51.2 51.2z"
     id="path2161"
     style="stroke:#000000;stroke-opacity:1;fill:#fc1924;fill-opacity:1" />
  <path
     d="M806.809 304.688l-58.245 666.45c-.544 6.246-6.714 11.9-12.99 11.9H290.226c-6.276 0-12.447-5.654-12.99-11.893L218.99 304.688c-.985-11.268-10.917-19.604-22.185-18.619s-19.604 10.917-18.619 22.185l58.245 666.45c2.385 27.401 26.278 49.294 53.795 49.294h445.348c27.517 0 51.41-21.893 53.796-49.301l58.244-666.443c.985-11.268-7.351-21.201-18.619-22.185s-21.201 7.351-22.185 18.619zM422.02 155.082V51.3c0-5.726 4.601-10.342 10.24-10.342h161.28c5.639 0 10.24 4.617 10.24 10.342v103.782c0 11.311 9.169 20.48 20.48 20.48s20.48-9.169 20.48-20.48V51.3c0-28.316-22.908-51.302-51.2-51.302H432.26c-28.292 0-51.2 22.987-51.2 51.302v103.782c0 11.311 9.169 20.48 20.48 20.48s20.48-9.169 20.48-20.48z"
     id="path2163"
     style="fill:#fc1924;fill-opacity:1" />
  <path
     d="M496.004 410.821v460.964c0 11.311 9.169 20.48 20.48 20.48s20.48-9.169 20.48-20.48V410.821c0-11.311-9.169-20.48-20.48-20.48s-20.48 9.169-20.48 20.48zm-192.435 1.767l39.936 460.964c.976 11.269 10.903 19.612 22.171 18.636s19.612-10.903 18.636-22.171l-39.936-460.964c-.976-11.269-10.903-19.612-22.171-18.636s-19.612 10.903-18.636 22.171zm377.856-3.535l-39.936 460.964c-.976 11.269 7.367 21.195 18.636 22.171s21.195-7.367 22.171-18.636l39.936-460.964c.976-11.269-7.367-21.195-18.636-22.171s-21.195 7.367-22.171 18.636z"
     id="path2165"
     style="fill:#fc1924;fill-opacity:1" />
</svg>
