<?xml version="1.0" encoding="UTF-8" standalone="no"?>
<svg
   width="24"
   height="24"
   viewBox="0 0 24 24"
   version="1.1"
   id="svg58"
   sodipodi:docname="home.svg"
   inkscape:version="1.2.2 (732a01da63, 2022-12-09)"
   xmlns:inkscape="http://www.inkscape.org/namespaces/inkscape"
   xmlns:sodipodi="http://sodipodi.sourceforge.net/DTD/sodipodi-0.dtd"
   xmlns="http://www.w3.org/2000/svg"
   xmlns:svg="http://www.w3.org/2000/svg">
  <defs
     id="defs62" />
  <sodipodi:namedview
     id="namedview60"
     pagecolor="#505050"
     bordercolor="#ffffff"
     borderopacity="1"
     inkscape:showpageshadow="0"
     inkscape:pageopacity="0"
     inkscape:pagecheckerboard="1"
     inkscape:deskcolor="#505050"
     showgrid="false"
     inkscape:zoom="33.583333"
     inkscape:cx="6.9975186"
     inkscape:cy="12"
     inkscape:window-width="1920"
     inkscape:window-height="1009"
     inkscape:window-x="-8"
     inkscape:window-y="-8"
     inkscape:window-maximized="1"
     inkscape:current-layer="svg58" />
  <path
     fill="none"
     stroke="#200E32"
     stroke-linecap="round"
     stroke-linejoin="round"
     stroke-width="1.5"
     d="M6.65721519,18.7714023 L6.65721519,15.70467 C6.65719744,14.9246392 7.29311743,14.2908272 8.08101266,14.2855921 L10.9670886,14.2855921 C11.7587434,14.2855921 12.4005063,14.9209349 12.4005063,15.70467 L12.4005063,15.70467 L12.4005063,18.7809263 C12.4003226,19.4432001 12.9342557,19.984478 13.603038,20 L15.5270886,20 C17.4451246,20 19,18.4606794 19,16.5618312 L19,16.5618312 L19,7.8378351 C18.9897577,7.09082692 18.6354747,6.38934919 18.0379747,5.93303245 L11.4577215,0.685301154 C10.3049347,-0.228433718 8.66620456,-0.228433718 7.51341772,0.685301154 L0.962025316,5.94255646 C0.362258604,6.39702249 0.00738668938,7.09966612 0,7.84735911 L0,16.5618312 C0,18.4606794 1.55487539,20 3.47291139,20 L5.39696203,20 C6.08235439,20 6.63797468,19.4499381 6.63797468,18.7714023 L6.63797468,18.7714023"
     transform="translate(2.5 2)"
     id="path56"
     style="stroke:#000000;stroke-opacity:1" />
</svg>
