<?xml version="1.0" encoding="UTF-8" standalone="no"?>
<!-- Uploaded to: SVG Repo, www.svgrepo.com, Generator: SVG Repo Mixer Tools -->

<svg
   width="800px"
   height="800px"
   viewBox="0 0 24 24"
   fill="none"
   version="1.1"
   id="svg4"
   sodipodi:docname="pencil.svg"
   inkscape:version="1.2.2 (732a01da63, 2022-12-09)"
   xmlns:inkscape="http://www.inkscape.org/namespaces/inkscape"
   xmlns:sodipodi="http://sodipodi.sourceforge.net/DTD/sodipodi-0.dtd"
   xmlns="http://www.w3.org/2000/svg"
   xmlns:svg="http://www.w3.org/2000/svg">
  <defs
     id="defs8" />
  <sodipodi:namedview
     id="namedview6"
     pagecolor="#505050"
     bordercolor="#ffffff"
     borderopacity="1"
     inkscape:showpageshadow="0"
     inkscape:pageopacity="0"
     inkscape:pagecheckerboard="1"
     inkscape:deskcolor="#505050"
     showgrid="false"
     inkscape:zoom="0.5"
     inkscape:cx="-461"
     inkscape:cy="435"
     inkscape:window-width="1920"
     inkscape:window-height="991"
     inkscape:window-x="2391"
     inkscape:window-y="-9"
     inkscape:window-maximized="1"
     inkscape:current-layer="svg4" />
  <path
     fill-rule="evenodd"
     clip-rule="evenodd"
     d="M15.8787 3.70705C17.0503 2.53547 18.9498 2.53548 20.1213 3.70705L20.2929 3.87862C21.4645 5.05019 21.4645 6.94969 20.2929 8.12126L18.5556 9.85857L8.70713 19.7071C8.57897 19.8352 8.41839 19.9261 8.24256 19.9701L4.24256 20.9701C3.90178 21.0553 3.54129 20.9554 3.29291 20.7071C3.04453 20.4587 2.94468 20.0982 3.02988 19.7574L4.02988 15.7574C4.07384 15.5816 4.16476 15.421 4.29291 15.2928L14.1989 5.38685L15.8787 3.70705ZM18.7071 5.12126C18.3166 4.73074 17.6834 4.73074 17.2929 5.12126L16.3068 6.10738L17.8622 7.72357L18.8787 6.70705C19.2692 6.31653 19.2692 5.68336 18.8787 5.29283L18.7071 5.12126ZM16.4477 9.13804L14.8923 7.52185L5.90299 16.5112L5.37439 18.6256L7.48877 18.097L16.4477 9.13804Z"
     fill="#000000"
     id="path2"
     style="fill:#000000;fill-opacity:1;stroke-width:0.306;stroke-dasharray:none" />
</svg>
