<?xml version="1.0" encoding="UTF-8" standalone="no"?>
<!-- Uploaded to: SVG Repo, www.svgrepo.com, Generator: SVG Repo Mixer Tools -->

<svg
   width="800px"
   height="800px"
   viewBox="0 0 20 20"
   version="1.1"
   id="svg5"
   sodipodi:docname="pro-tag.svg"
   inkscape:version="1.2.2 (732a01da63, 2022-12-09)"
   xmlns:inkscape="http://www.inkscape.org/namespaces/inkscape"
   xmlns:sodipodi="http://sodipodi.sourceforge.net/DTD/sodipodi-0.dtd"
   xmlns="http://www.w3.org/2000/svg"
   xmlns:svg="http://www.w3.org/2000/svg">
  <defs
     id="defs9" />
  <sodipodi:namedview
     id="namedview7"
     pagecolor="#505050"
     bordercolor="#ffffff"
     borderopacity="1"
     inkscape:showpageshadow="0"
     inkscape:pageopacity="0"
     inkscape:pagecheckerboard="1"
     inkscape:deskcolor="#505050"
     showgrid="false"
     inkscape:zoom="0.7106423"
     inkscape:cx="226.55561"
     inkscape:cy="315.20781"
     inkscape:window-width="1920"
     inkscape:window-height="1017"
     inkscape:window-x="-8"
     inkscape:window-y="-8"
     inkscape:window-maximized="1"
     inkscape:current-layer="user-circle-2" />
  <g
     id="user-circle-2"
     transform="translate(-2 -2)">
    <rect
       style="fill:#2ca9bc;fill-opacity:1;stroke:none;stroke-width:0.5;stroke-opacity:1"
       id="rect16089"
       width="12.014925"
       height="7.2388062"
       x="6.2039804"
       y="8.4427862" />
    <g
       id="g1218"
       style="fill:#2ca9bc;fill-opacity:1;stroke:#000000;stroke-opacity:1;stroke-width:10;stroke-dasharray:none"
       transform="matrix(0.025,0,0,0.025,-4.8569338,11.538999)">
      <path
         d="m 679.92076,-21.371836 c -3.8469,-3.028311 -8.46913,-4.543085 -13.87038,-4.543085 H 649.83921 V 9.2043391 h 16.20994 c 5.40125,0 10.02347,-1.5098275 13.87038,-4.5455585 3.84567,-3.0233646 5.77468,-7.4032254 5.77468,-13.1371085 0,-5.5620031 -1.92901,-9.8639601 -5.77345,-12.8935081 z"
         id="path1210"
         style="fill:#e0bb00;fill-opacity:1;stroke:#000000;stroke-width:10;stroke-opacity:1;stroke-dasharray:none" />
      <path
         d="m 552.63866,-23.423627 c -3.8469,-3.028311 -8.46913,-4.543085 -13.87038,-4.543085 H 522.55711 V 7.1525478 h 16.20994 c 5.40125,0 10.02347,-1.509828 13.87038,-4.545558 3.84567,-3.0233651 5.77468,-7.4032259 5.77468,-13.1371088 0,-5.562003 -1.92901,-9.86396 -5.77345,-12.893508 z"
         id="path1210-0"
         style="fill:#e0bb00;fill-opacity:1;stroke:#000000;stroke-width:10;stroke-opacity:1;stroke-dasharray:none" />
      <path
         d="m 829.03874,-28.222687 c -12.60185,0 -23.56534,4.663829 -32.88919,13.987681 -9.32766,9.322581 -13.99022,21.2112206 -13.99022,35.66211 0,14.620946 4.66383,26.592075 13.99022,35.917195 9.32385,9.326389 20.28734,13.98768 32.88919,13.98768 12.60567,0 23.60596,-4.66256 33.02245,-13.98768 9.40634,-9.32512 14.11078,-21.296249 14.11078,-35.917195 0,-14.4508894 -4.70444,-26.339529 -14.11078,-35.66211 -9.41649,-9.323852 -20.41678,-13.987681 -33.02245,-13.987681 z"
         id="path1212"
         style="fill:#e0bb00;fill-opacity:1;stroke:#000000;stroke-width:10;stroke-dasharray:none;stroke-opacity:1" />
      <path
         d="M 946.10935,-170.31594 724.21752,-298.42565 c -19.25781,-11.11845 -50.77048,-11.11845 -70.02831,0 l -221.89309,128.10971 c -19.25655,11.11845 -35.01352,38.41002 -35.01352,60.64692 v 256.21816 c 0,22.23816 15.75697,49.52972 35.01352,60.64691 l 221.89309,128.10971 c 19.25783,11.11846 50.7705,11.11846 70.02831,0 L 946.10935,207.19605 c 19.25655,-11.11719 35.01352,-38.41002 35.01352,-60.64691 v -256.21943 c 0,-22.2369 -15.75697,-49.52847 -35.01352,-60.64565 z M 580.31648,25.298579 c -10.10676,9.016164 -22.41125,13.521065 -36.90456,13.521065 H 521.93346 V 102.25986 H 484.27172 V -58.988883 h 59.14146 c 14.49332,0 26.79654,4.464178 36.90457,13.393808 10.10803,8.93472 15.16141,20.726363 15.16141,35.383835 0,14.6574713 -5.05465,26.498744 -15.16268,35.509819 z M 708.45163,102.25986 664.98062,38.819644 H 651.0816 V 102.25986 H 613.41986 V -58.988883 h 60.15316 c 14.32024,0 26.57764,4.464178 36.77475,13.393808 10.19329,8.93472 15.29121,20.726363 15.29121,35.383835 0,9.0976093 -2.36189,17.2738783 -7.07676,24.517351 -4.72125,7.247292 -10.61833,12.55264 -17.69383,15.92368 l 51.30879,72.030069 z M 890.80469,82.547725 c -17.27133,15.66535 -37.61593,23.505665 -61.03759,23.505665 -23.25115,0 -43.51302,-7.840315 -60.78054,-23.505665 -17.27768,-15.671713 -25.90953,-36.059568 -25.90953,-61.166119 0,-24.7667757 8.63185,-44.989201 25.90953,-60.658367 17.26624,-15.667893 37.52812,-23.503112 60.78054,-23.503112 14.99725,0 29.0668,3.368495 42.2099,10.109304 13.14184,6.739535 23.88234,16.640137 32.22404,29.695442 8.34171,13.0591232 12.50938,27.8463973 12.50938,44.355459 10e-4,25.107825 -8.63566,45.494407 -25.90573,61.167393 z"
         id="path1214"
         style="fill:#e0bb00;fill-opacity:1;stroke:#000000;stroke-width:10;stroke-opacity:1;stroke-dasharray:none" />
    </g>
  </g>
</svg>
