<?xml version="1.0" standalone="no"?>
<!DOCTYPE svg PUBLIC "-//W3C//DTD SVG 20010904//EN"
 "http://www.w3.org/TR/2001/REC-SVG-20010904/DTD/svg10.dtd">
<svg version="1.0" xmlns="http://www.w3.org/2000/svg"
 width="512.000000pt" height="512.000000pt" viewBox="0 0 512.000000 512.000000"
 preserveAspectRatio="xMidYMid meet">

<g transform="translate(0.000000,512.000000) scale(0.100000,-0.100000)"
fill="#000000" stroke="none">
<path d="M2414 4948 c-12 -5 -27 -22 -34 -37 -32 -70 -470 -1294 -470 -1314 0
-34 35 -67 71 -67 47 0 66 16 87 72 151 405 455 1260 455 1282 0 20 -9 37 -27
53 -29 25 -49 28 -82 11z"/>
<path d="M3044 4946 c-56 -18 -102 -53 -129 -101 -32 -56 -280 -687 -300 -762
-80 -316 12 -698 229 -942 26 -29 45 -58 43 -65 -3 -6 -237 -592 -521 -1303
-324 -812 -516 -1305 -516 -1326 0 -67 83 -103 127 -54 29 32 1083 2674 1083
2714 0 27 -13 47 -67 105 -157 172 -237 354 -250 573 -9 173 8 241 163 630 75
187 145 350 157 363 39 42 109 21 131 -42 4 -12 -39 -132 -123 -345 -71 -179
-137 -350 -145 -380 -49 -169 -19 -389 76 -549 46 -78 147 -182 224 -232 37
-25 172 -86 317 -145 299 -121 306 -124 368 -182 67 -63 90 -107 138 -266 64
-213 108 -287 183 -307 123 -34 276 102 388 344 22 47 48 90 59 95 52 28 121
-10 121 -67 0 -35 -76 -193 -136 -283 -49 -74 -142 -165 -207 -203 -23 -14
-72 -33 -107 -42 -206 -53 -372 73 -460 349 -12 38 -31 77 -43 88 -26 24 -68
25 -95 2 -24 -21 -272 -635 -272 -673 0 -14 6 -33 13 -42 8 -9 137 -71 288
-138 291 -128 318 -145 339 -217 25 -82 28 -78 -466 -623 -251 -277 -460 -514
-465 -527 -20 -53 37 -113 91 -97 21 6 163 157 494 523 526 580 512 561 504
701 -6 90 -36 158 -97 213 -49 44 -49 44 -306 156 -115 51 -211 94 -213 96 -4
4 125 335 133 343 1 2 17 -23 35 -55 40 -70 130 -166 188 -200 70 -41 155 -63
245 -63 153 0 274 51 397 167 96 90 165 189 238 340 51 107 56 124 56 183 -1
138 -96 234 -234 234 -117 0 -174 -45 -243 -194 -51 -110 -123 -212 -170 -240
l-32 -20 -22 43 c-12 24 -37 98 -56 164 -44 151 -62 193 -120 268 -47 63 -114
119 -183 153 -22 11 -151 65 -287 120 -135 56 -271 117 -302 137 -184 123
-285 374 -233 583 6 26 71 199 145 385 111 283 133 346 133 390 0 105 -72 197
-175 226 -50 14 -79 13 -131 -3z"/>
<path d="M1789 4611 c-16 -16 -29 -39 -29 -51 0 -28 52 -80 80 -80 28 0 80 52
80 80 0 28 -52 80 -80 80 -12 0 -35 -13 -51 -29z"/>
<path d="M1715 4298 c-21 -20 -75 -183 -350 -1065 -179 -573 -325 -1055 -325
-1072 0 -69 91 -97 131 -41 10 14 165 497 344 1073 295 944 326 1051 315 1076
-11 27 -46 51 -75 51 -8 0 -25 -10 -40 -22z"/>
<path d="M3770 4314 c-184 -36 -320 -149 -381 -320 -17 -45 -22 -82 -22 -154
0 -72 5 -109 22 -154 72 -199 243 -320 451 -320 268 0 471 201 474 469 2 212
-121 387 -320 455 -59 21 -176 33 -224 24z m187 -176 c119 -44 203 -168 203
-298 0 -176 -144 -320 -320 -320 -176 0 -320 144 -320 320 0 225 224 378 437
298z"/>
<path d="M2380 3332 c-172 -76 -313 -175 -448 -316 -153 -161 -244 -317 -332
-572 -88 -254 -189 -422 -355 -588 -246 -247 -572 -394 -910 -413 -114 -6
-121 -8 -148 -35 -28 -27 -29 -31 -22 -91 10 -83 48 -215 84 -285 71 -140 169
-237 306 -303 128 -61 268 -89 450 -89 196 0 369 -36 511 -105 103 -51 135
-55 169 -20 47 46 28 91 -62 144 -147 86 -320 126 -622 141 -210 10 -276 23
-377 71 -138 65 -254 216 -288 376 -7 32 -7 32 41 38 228 28 406 80 585 172
152 77 266 161 393 288 187 188 298 370 395 649 59 171 91 239 165 351 129
194 313 347 539 445 79 35 116 67 116 102 0 27 -54 78 -82 77 -13 0 -61 -17
-108 -37z"/>
<path d="M3000 1652 c-73 -24 -128 -60 -176 -115 -41 -47 -680 -1240 -691
-1289 -4 -21 1 -34 25 -58 36 -36 62 -38 97 -7 14 12 169 293 346 627 176 333
332 617 347 633 41 43 101 67 168 67 50 0 86 -10 224 -66 91 -36 166 -67 168
-69 2 -2 -85 -121 -192 -264 -166 -221 -196 -266 -196 -295 0 -53 54 -89 105
-70 19 8 472 605 485 640 12 31 -2 68 -32 88 -13 8 -122 54 -242 102 -200 79
-226 87 -300 90 -60 3 -95 0 -136 -14z"/>
<path d="M4669 1251 c-16 -16 -29 -39 -29 -51 0 -28 52 -80 80 -80 28 0 80 52
80 80 0 28 -52 80 -80 80 -12 0 -35 -13 -51 -29z"/>
<path d="M4444 1025 c-36 -24 -588 -585 -598 -606 -21 -44 40 -107 91 -94 29
7 539 504 594 579 36 49 36 70 0 107 -33 32 -56 36 -87 14z"/>
</g>
</svg>
