<?xml version="1.0" encoding="UTF-8" standalone="no"?>
<!-- Uploaded to: SVG Repo, www.svgrepo.com, Generator: SVG Repo Mixer Tools -->

<svg
   fill="#000000"
   width="800px"
   height="800px"
   viewBox="0 0 24 24"
   version="1.1"
   id="svg4"
   sodipodi:docname="user.svg"
   inkscape:version="1.2.2 (732a01da63, 2022-12-09)"
   xmlns:inkscape="http://www.inkscape.org/namespaces/inkscape"
   xmlns:sodipodi="http://sodipodi.sourceforge.net/DTD/sodipodi-0.dtd"
   xmlns="http://www.w3.org/2000/svg"
   xmlns:svg="http://www.w3.org/2000/svg">
  <defs
     id="defs8" />
  <sodipodi:namedview
     id="namedview6"
     pagecolor="#505050"
     bordercolor="#ffffff"
     borderopacity="1"
     inkscape:showpageshadow="0"
     inkscape:pageopacity="0"
     inkscape:pagecheckerboard="1"
     inkscape:deskcolor="#505050"
     showgrid="false"
     inkscape:zoom="0.5025"
     inkscape:cx="173.13433"
     inkscape:cy="399.00497"
     inkscape:window-width="1920"
     inkscape:window-height="991"
     inkscape:window-x="-9"
     inkscape:window-y="-9"
     inkscape:window-maximized="1"
     inkscape:current-layer="svg4" />
  <path
     d="m 2,21 h 8 c 1.333333,0 1.333333,-2 0,-2 H 3.071 C 3.5725663,15.558113 6.521763,13.004328 10,13 15.592154,13.0485 17.092212,5.3236525 11.899886,3.2679405 6.7075601,1.2122285 2.5131997,7.8703654 6.623,11.663 3.2279413,13.040269 1.0049426,16.336222 1,20 c 0,0.552285 0.4477153,1 1,1 z M 10,5 c 2.6729,0 4.01101,3.2314157 2.121213,5.121213 C 10.231416,12.01101 7,10.6729 7,8 7,6.3431458 8.3431458,5 10,5 Z"
     id="path2"
     sodipodi:nodetypes="sssccsccsssss" />
</svg>
